<?xml version="1.0" standalone="no"?>
<!DOCTYPE svg PUBLIC "-//W3C//DTD SVG 20010904//EN"
 "http://www.w3.org/TR/2001/REC-SVG-20010904/DTD/svg10.dtd">
<svg version="1.0" xmlns="http://www.w3.org/2000/svg"
 width="200.000000pt" height="200.000000pt" viewBox="0 0 200.000000 200.000000"
 preserveAspectRatio="xMidYMid meet">
<metadata>
Created by potrace 1.11, written by Peter Selinger 2001-2013
</metadata>
<g transform="translate(0.000000,200.000000) scale(0.100000,-0.100000)"
fill="#000000" stroke="none">
<path d="M482 1328 c-18 -18 -14 -46 7 -58 11 -5 22 -10 25 -10 8 0 36 31 36
40 0 13 -30 40 -44 40 -6 0 -17 -5 -24 -12z"/>
<path d="M1549 1338 c-10 -36 -7 -48 16 -54 l25 -6 0 -153 c0 -151 0 -154 -22
-157 -17 -2 -23 -10 -23 -28 0 -24 2 -24 73 -26 l72 -1 0 28 c0 22 -5 29 -20
29 -15 0 -20 7 -20 29 0 16 6 34 14 40 11 10 19 5 39 -21 42 -57 57 -84 50
-91 -7 -8 -4 -8 52 -12 50 -3 64 2 60 23 -2 9 -4 20 -4 25 -1 4 -11 7 -24 7
-16 0 -34 16 -60 50 -21 28 -40 56 -43 63 -2 7 13 26 36 42 22 17 40 33 40 37
0 3 9 4 20 1 17 -4 20 0 20 24 l0 30 -67 -3 c-38 -1 -71 -3 -75 -3 -13 -2 -9
-33 6 -45 10 -9 6 -17 -25 -45 l-39 -33 0 126 0 126 -50 0 c-27 0 -50 -1 -51
-2z"/>
<path d="M215 1218 c-51 -11 -85 -43 -85 -80 0 -59 29 -83 115 -95 53 -7 75
-20 75 -43 0 -26 -27 -38 -78 -35 -47 3 -57 8 -57 33 0 11 -10 18 -27 20 -22
3 -28 -1 -29 -17 -1 -12 -2 -29 -3 -38 -3 -50 157 -77 213 -36 39 30 53 64 40
101 -11 31 -59 62 -96 62 -42 0 -93 21 -93 38 0 30 21 42 71 42 42 0 48 -3 51
-22 2 -17 11 -24 31 -26 25 -3 27 -1 27 37 0 36 -3 40 -32 50 -52 16 -80 18
-123 9z"/>
<path d="M443 1213 c-7 -3 -13 -16 -13 -29 0 -18 5 -24 23 -24 23 0 24 -2 24
-95 1 -94 0 -95 -23 -95 -20 0 -24 -5 -24 -29 l0 -29 73 3 c39 1 75 3 78 4 3
0 4 12 1 26 -3 16 -11 25 -23 25 -22 0 -21 -6 -20 133 1 79 -2 107 -12 108
-57 5 -74 5 -84 2z"/>
<path d="M638 1212 c-26 -5 -16 -45 12 -52 14 -3 33 -23 48 -51 l26 -45 -35
-47 c-19 -25 -41 -46 -50 -47 -22 0 -27 -7 -22 -34 4 -21 10 -23 69 -22 35 0
64 2 65 5 0 4 2 14 4 24 2 11 -4 21 -15 25 -18 7 -17 8 2 32 l20 25 24 -30
c13 -17 24 -42 24 -56 0 -24 3 -26 48 -24 61 2 61 2 57 23 -2 9 -4 20 -4 25
-1 4 -9 7 -19 7 -15 0 -82 78 -82 96 0 16 74 99 88 99 16 0 17 4 14 38 -2 10
-19 13 -64 13 -58 -1 -62 -3 -69 -29 -6 -23 -4 -27 14 -27 20 0 20 0 -3 -25
l-24 -25 -18 27 c-10 16 -18 40 -18 54 0 23 -4 25 -37 25 -21 0 -46 -2 -55 -4z"/>
<path d="M973 1213 c-7 -3 -13 -15 -13 -28 0 -17 6 -25 23 -27 21 -3 22 -8 23
-83 0 -94 -2 -105 -26 -105 -20 0 -30 -18 -21 -40 4 -11 24 -15 79 -16 l72 -1
0 28 c0 22 -5 29 -20 29 -20 0 -22 6 -22 55 0 80 3 95 24 115 28 26 72 26 98
0 16 -16 20 -33 20 -94 0 -70 -1 -75 -22 -78 -21 -3 -24 -11 -19 -47 0 -5 34
-8 74 -7 71 1 72 1 73 29 1 22 -3 27 -22 27 -23 0 -24 3 -24 70 0 62 3 74 25
95 29 30 68 32 95 5 16 -16 20 -33 20 -95 0 -68 -2 -75 -20 -75 -15 0 -20 -7
-20 -28 l0 -29 73 1 c71 1 72 1 75 29 3 23 0 27 -21 27 -25 0 -25 2 -25 80 0
60 -5 88 -19 112 -35 60 -136 75 -184 27 l-21 -21 -22 21 c-31 29 -75 36 -120
17 -45 -19 -49 -19 -41 -6 4 6 -6 10 -22 11 -15 0 -35 2 -43 3 -8 2 -21 1 -27
-1z"/>
<path d="M113 852 c-13 -2 -23 -8 -23 -13 0 -5 355 -9 910 -9 600 0 910 3 910
10 0 6 -8 10 -17 10 -90 3 -1763 4 -1780 2z"/>
<path d="M301 713 c0 -32 3 -53 5 -47 3 6 15 9 28 7 17 -4 28 2 40 18 9 13 16
27 16 31 0 17 -42 48 -65 48 -24 0 -25 -3 -24 -57z m59 22 c10 -12 10 -18 0
-30 -21 -25 -40 -18 -40 15 0 33 19 40 40 15z"/>
<path d="M427 763 c-13 -12 -8 -93 6 -94 6 0 22 -2 35 -3 13 -2 22 3 22 11 0
7 -11 13 -25 13 -14 0 -25 5 -25 10 0 6 11 10 25 10 14 0 25 5 25 10 0 6 -11
10 -25 10 -14 0 -25 5 -25 10 0 6 11 10 25 10 14 0 25 5 25 10 0 11 -53 14
-63 3z"/>
<path d="M547 763 c-16 -15 -6 -43 18 -49 36 -9 32 -28 -5 -21 -22 5 -28 3
-24 -8 14 -36 78 -21 72 18 -2 14 -11 23 -25 25 -31 5 -29 22 3 22 14 0 23 4
19 10 -7 11 -48 14 -58 3z"/>
<path d="M650 720 c0 -27 5 -50 10 -50 6 0 10 23 10 50 0 28 -4 50 -10 50 -5
0 -10 -22 -10 -50z"/>
<path d="M726 755 c-24 -24 -20 -60 9 -79 20 -13 28 -14 45 -4 27 17 27 57 0
55 -20 -1 -29 -17 -10 -17 6 0 10 -5 10 -11 0 -6 -10 -9 -22 -7 -17 2 -23 10
-23 28 0 21 5 25 28 25 15 -1 26 4 24 10 -6 17 -43 17 -61 0z"/>
<path d="M840 720 c0 -27 5 -50 10 -50 6 0 10 14 10 31 l0 32 30 -38 30 -38 0
57 c0 31 -4 56 -10 56 -5 0 -10 -12 -10 -27 l0 -28 -25 28 c-14 15 -28 27 -30
27 -3 0 -5 -22 -5 -50z"/>
<path d="M1160 720 c0 -27 5 -50 10 -50 6 0 10 6 10 14 0 8 10 16 21 18 12 2
27 11 33 21 9 15 7 21 -8 33 -11 8 -30 14 -43 14 -21 0 -23 -4 -23 -50z m60
15 c0 -8 -9 -15 -20 -15 -11 0 -20 7 -20 15 0 8 9 15 20 15 11 0 20 -7 20 -15z"/>
<path d="M1278 763 c-4 -7 -3 -49 1 -93 1 -13 3 -13 10 0 6 8 7 18 5 22 -11
17 21 7 43 -14 22 -21 34 -13 12 9 -8 8 -8 17 0 31 9 16 7 24 -5 36 -16 16
-60 22 -66 9z m55 -28 c-3 -17 -30 -17 -37 0 -4 13 -1 16 17 13 12 -2 21 -7
20 -13z"/>
<path d="M1393 720 c0 -27 4 -50 8 -50 5 0 9 23 9 50 0 28 -4 50 -9 50 -4 0
-8 -22 -8 -50z"/>
<path d="M1459 764 c-4 -8 -4 -38 0 -81 0 -7 6 -13 11 -13 6 0 8 13 5 30 -7
39 -1 38 30 -7 14 -21 26 -33 26 -28 6 54 3 105 -5 102 -6 -2 -9 -16 -8 -31
l4 -28 -30 33 c-16 18 -31 28 -33 23z"/>
<path d="M1570 760 c0 -5 7 -10 15 -10 11 0 15 -11 15 -40 0 -22 5 -40 10 -40
6 0 10 18 10 40 0 29 4 40 15 40 8 0 15 5 15 10 0 6 -18 10 -40 10 -22 0 -40
-4 -40 -10z"/>
<path d="M1022 734 c-11 -12 -11 -17 1 -28 11 -11 16 -11 32 0 10 8 17 15 14
17 -2 1 -11 8 -19 14 -11 8 -18 8 -28 -3z"/>
</g>
</svg>
